<svg version="1.1" xmlns="http://www.w3.org/2000/svg" viewBox="-1437.6236495982278 -3706.566775418446 9042.931124869358 6891.863632934642"><desc>Created with Snap</desc><defs><linearGradient x1="-1437.6236495982278" y1="-3706.566775418446" x2="7605.30747527113" y2="-3706.566775418446" gradientUnits="userSpaceOnUse" id="linearGradientSkypnqfkniva"><stop offset="0%" stop-color="#081c4f"></stop><stop offset="100%" stop-color="#157c79"></stop></linearGradient></defs><g><rect x="-1437.6236495982278" y="-3706.566775418446" width="9042.931124869358" height="6891.863632934642" fill="url('#linearGradientSkypnqfkniva')"></rect><g transform="matrix(21.1893,0,0,21.1893,-1154.0137,-4498.491)">
<g id="gSkypnqfkniut">
	<g>
		<path d="M201.21243,348.1283c-10.49316,0-20.94092-0.78418-31.23291-2.37207
			c-45.83106-7.06934-85.31641-28.95801-114.188-63.30078l0,0c-19.96777-23.75195-36.14941-53.38672-45.56494-83.44531
			c-9.9082-31.6333-11.77832-61.13428-5.4082-85.31397c6.92285-26.27734,23.61719-45.02197,48.27783-54.20703
			c57.13867-21.28027,86.83985,6.06152,115.56251,32.50439c6.1084,5.62354,12.4248,11.43799,18.95068,16.75293
			c27.20117,22.15284,50.9082,14.73486,78.36035,6.14551c17.17383-5.37305,34.92383-10.93262,55.42676-9.97949
			c54.07617,2.51025,71.06934,29.24317,75.80273,51.22706c5.5791,25.91162-2.82129,60.30322-23.04785,94.35596
			c-19.3125,32.51367-46.77734,60.03027-73.4668,73.60645C269.6055,339.90857,235.17679,348.1283,201.21243,348.1283z
			 M59.61868,279.23865c28.08057,33.40137,66.50635,54.69434,111.12305,61.57617
			c42.57764,6.56641,87.92139-0.9502,127.67529-21.16992c25.88184-13.16406,52.58594-39.96875,71.43555-71.70312
			c19.58984-32.98047,27.77539-66.05762,22.45898-90.74951c-2.95117-13.70654-9.9541-24.65137-20.81445-32.53028
			c-12.13281-8.80371-29.06738-13.76758-50.33301-14.75439c-19.60645-0.91602-36.94141,4.51221-53.70215,9.75635
			c-27.62988,8.64503-53.72656,16.80714-83.00977-7.04053c-6.64355-5.41064-13.0166-11.27734-19.18018-16.95166
			c-28.88477-26.59131-56.16749-51.70752-110.43067-31.49707c-23.40088,8.71582-38.604,25.80566-45.1875,50.79541
			c-6.13037,23.26807-4.28223,51.81153,5.34424,82.54591C24.22024,226.95837,40.06692,255.98083,59.61868,279.23865z" fill="#ffffff" style=""></path>
	</g>
</g>


<desc>Created with Snap</desc><defs></defs></g><g><g transform="matrix(0.5,0,0,-0.5,0,0)"><path d="M0 1061Q0 1178 64 1260Q129 1342 241 1394Q353 1447 502 1471Q651 1495 821 1495Q902 1495 979 1493Q1056 1492 1119 1489Q1183 1486 1229 1482Q1275 1478 1296 1473Q1316 1468 1328 1462Q1340 1456 1346 1448Q1352 1440 1354 1429Q1356 1419 1356 1405Q1356 1393 1353 1378Q1350 1364 1344 1351Q1338 1339 1329 1330Q1320 1321 1307 1321Q1299 1321 1289 1328Q1280 1335 1262 1346Q1245 1357 1215 1369Q1186 1381 1136 1392Q1087 1403 1013 1410Q940 1417 836 1417L836 776L1251 776L1251 688L836 688L836 297Q836 250 850 216Q864 183 890 161Q916 139 952 129Q989 119 1034 119Q1085 119 1136 129Q1187 140 1232 156Q1278 172 1315 192Q1353 212 1376 231L1415 188Q1390 168 1348 133Q1306 99 1245 66Q1185 33 1104 8Q1024 -16 922 -16Q888 -16 844 -13Q801 -9 755 1Q709 12 664 32Q620 53 585 87Q551 121 529 170Q508 220 508 289L508 688L352 688L352 776L508 776L508 1405Q476 1402 434 1393Q393 1385 349 1369Q306 1354 264 1333Q222 1312 189 1284Q156 1256 135 1221Q115 1187 115 1147Q115 1115 123 1096Q132 1077 143 1067Q154 1058 165 1055Q177 1053 182 1053Q207 1053 223 1061Q239 1070 252 1079Q265 1089 276 1097Q288 1106 303 1106Q315 1106 328 1100Q342 1095 353 1083Q365 1071 373 1051Q381 1032 381 1004Q381 964 365 934Q350 905 325 886Q301 867 269 857Q238 848 207 848Q159 848 120 864Q82 881 55 910Q28 939 14 977Q0 1016 0 1061ZM1855 887L1986 664L2097 829Q2111 851 2120 873Q2130 896 2136 917Q2143 939 2147 957Q2152 976 2156 989Q2164 1015 2183 1026Q2202 1038 2242 1038Q2265 1038 2282 1030Q2300 1022 2300 1004Q2300 975 2280 932Q2260 890 2226 842L2040 575L2300 141Q2310 123 2318 112Q2327 101 2335 95Q2343 89 2351 86Q2359 84 2369 84Q2380 84 2391 89Q2402 95 2416 106L2437 82Q2414 63 2389 44Q2364 26 2333 12Q2303 -2 2266 -11Q2230 -20 2185 -20Q2134 -20 2097 -3Q2060 15 2032 41Q2005 67 1985 97Q1966 127 1952 152L1806 395L1671 193Q1657 171 1647 148Q1638 126 1631 104Q1625 83 1620 64Q1616 46 1612 33Q1604 7 1585 -5Q1566 -16 1526 -16Q1503 -16 1485 -8Q1468 0 1468 18Q1468 47 1486 85Q1504 124 1542 180L1755 483L1515 887Q1503 907 1492 920Q1482 934 1462 934Q1443 934 1415 911L1395 936Q1418 955 1445 973Q1472 992 1503 1006Q1535 1020 1572 1029Q1609 1038 1651 1038Q1698 1038 1730 1023Q1763 1009 1785 987Q1808 965 1824 938Q1840 911 1855 887ZM2537 -406L2537 862Q2537 891 2523 912Q2510 934 2478 934Q2461 934 2449 928Q2437 922 2423 911L2402 936Q2425 955 2453 973Q2482 992 2515 1006Q2548 1020 2586 1029Q2624 1038 2666 1038Q2711 1038 2743 1024Q2775 1010 2796 990Q2818 971 2829 949Q2840 928 2842 913Q2862 941 2889 964Q2917 987 2949 1003Q2982 1020 3018 1029Q3055 1038 3094 1038Q3174 1038 3239 1005Q3304 972 3350 907Q3397 842 3422 746Q3447 650 3447 524Q3447 378 3416 275Q3386 173 3336 108Q3287 43 3223 13Q3160 -16 3094 -16Q3039 -16 2997 -5Q2956 6 2926 22Q2896 38 2876 54Q2856 71 2844 82L2844 -406Q2844 -419 2840 -437Q2836 -455 2820 -472Q2805 -488 2774 -500Q2744 -512 2691 -512Q2638 -512 2607 -500Q2577 -487 2561 -470Q2545 -452 2541 -435Q2537 -417 2537 -406ZM2844 782L2844 225Q2844 217 2851 197Q2858 177 2873 156Q2888 135 2911 118Q2935 102 2969 102Q3013 102 3044 135Q3075 169 3095 226Q3115 284 3124 360Q3133 437 3133 524Q3133 631 3121 705Q3110 779 3088 824Q3066 870 3035 890Q3005 911 2967 911Q2945 911 2923 898Q2901 886 2883 867Q2866 849 2855 826Q2844 803 2844 782ZM4290 692L3895 459Q3895 427 3904 389Q3914 352 3932 314Q3950 276 3976 241Q4003 207 4037 180Q4072 153 4114 137Q4156 121 4206 121Q4241 121 4271 129Q4301 137 4327 151Q4353 165 4377 183Q4401 202 4425 223L4450 199Q4427 168 4391 131Q4355 94 4304 61Q4253 29 4185 7Q4117 -14 4030 -14Q3943 -14 3860 17Q3778 49 3714 112Q3650 175 3611 269Q3573 363 3573 489Q3573 580 3596 656Q3619 732 3658 793Q3698 854 3750 900Q3803 946 3861 976Q3919 1007 3979 1022Q4040 1038 4096 1038Q4170 1038 4225 1022Q4280 1006 4316 979Q4353 952 4371 916Q4389 881 4389 842Q4389 795 4362 757Q4335 720 4290 692ZM3885 541L4096 662Q4109 670 4117 677Q4126 685 4131 695Q4136 706 4138 721Q4141 737 4141 760Q4141 785 4135 815Q4130 846 4117 873Q4104 900 4084 918Q4064 936 4036 936Q4000 936 3974 914Q3949 893 3932 859Q3916 825 3906 781Q3897 738 3892 694Q3887 650 3886 609Q3885 569 3885 541ZM5140 543Q5140 554 5140 587Q5140 621 5138 664Q5136 708 5131 757Q5126 806 5115 848Q5091 879 5061 903Q5032 928 4986 928Q4908 928 4871 826Q4835 724 4835 510Q4835 416 4843 338Q4852 260 4869 204Q4887 148 4914 117Q4942 86 4980 86Q5140 86 5140 543ZM5128 983Q5109 1083 5075 1169Q5041 1256 4993 1319Q4946 1382 4885 1418Q4825 1454 4755 1454Q4715 1454 4682 1444Q4650 1434 4626 1420Q4602 1407 4586 1394Q4571 1382 4564 1376L4538 1411Q4562 1442 4596 1469Q4631 1496 4672 1515Q4713 1534 4758 1545Q4804 1556 4849 1556Q4997 1556 5109 1491Q5221 1427 5296 1309Q5371 1191 5409 1024Q5447 857 5447 653Q5447 488 5413 363Q5380 238 5318 153Q5256 69 5167 26Q5079 -16 4968 -16Q4891 -16 4811 11Q4732 39 4667 101Q4603 163 4562 263Q4521 364 4521 510Q4521 636 4556 734Q4592 832 4652 899Q4712 967 4791 1002Q4870 1038 4958 1038Q4992 1038 5019 1032Q5046 1027 5066 1019Q5086 1011 5101 1001Q5116 992 5128 983ZM5957 872L5957 90Q5957 77 5952 58Q5948 40 5931 23Q5915 7 5884 -5Q5853 -16 5800 -16Q5747 -16 5717 -4Q5687 9 5672 26Q5657 43 5653 61Q5650 79 5650 90L5650 862Q5650 891 5636 912Q5623 934 5591 934Q5574 934 5562 928Q5550 922 5536 911L5515 936Q5538 955 5566 973Q5595 992 5628 1006Q5661 1020 5699 1029Q5737 1038 5779 1038Q5844 1038 5880 1020Q5916 1003 5933 977Q5950 952 5953 923Q5957 894 5957 872ZM5619 1266Q5619 1294 5631 1319Q5644 1345 5666 1364Q5689 1383 5718 1394Q5748 1405 5783 1405Q5817 1405 5846 1394Q5876 1383 5898 1364Q5920 1345 5932 1319Q5945 1294 5945 1266Q5945 1237 5932 1212Q5920 1187 5898 1168Q5876 1150 5846 1139Q5817 1128 5783 1128Q5748 1128 5718 1139Q5689 1150 5666 1168Q5644 1187 5631 1212Q5619 1237 5619 1266ZM6688 952L6533 952L6533 213Q6533 160 6553 139Q6573 119 6608 119Q6635 119 6656 134Q6677 149 6692 168Q6710 189 6723 217L6754 203Q6739 171 6718 133Q6698 95 6664 62Q6630 30 6578 8Q6527 -14 6449 -14Q6405 -14 6364 -1Q6324 12 6292 40Q6261 68 6242 110Q6223 152 6223 211L6223 952L6111 952L6111 1024Q6139 1024 6189 1038Q6239 1053 6291 1087Q6344 1121 6389 1178Q6434 1235 6453 1319L6533 1319L6533 1024L6696 1024Q6776 1024 6776 1051Q6776 1061 6766 1064Q6756 1068 6743 1073Q6731 1079 6721 1089Q6711 1099 6711 1122Q6711 1150 6728 1166Q6746 1182 6774 1182Q6792 1182 6805 1174Q6819 1167 6828 1154Q6837 1142 6841 1126Q6846 1110 6846 1094Q6846 1029 6808 990Q6771 952 6688 952ZM7552 692L7157 459Q7157 427 7166 389Q7176 352 7194 314Q7212 276 7238 241Q7265 207 7299 180Q7334 153 7376 137Q7418 121 7468 121Q7503 121 7533 129Q7563 137 7589 151Q7615 165 7639 183Q7663 202 7687 223L7712 199Q7689 168 7653 131Q7617 94 7566 61Q7515 29 7447 7Q7379 -14 7292 -14Q7205 -14 7122 17Q7040 49 6976 112Q6912 175 6873 269Q6835 363 6835 489Q6835 580 6858 656Q6881 732 6920 793Q6960 854 7012 900Q7065 946 7123 976Q7181 1007 7241 1022Q7302 1038 7358 1038Q7432 1038 7487 1022Q7542 1006 7578 979Q7615 952 7633 916Q7651 881 7651 842Q7651 795 7624 757Q7597 720 7552 692ZM7147 541L7358 662Q7371 670 7379 677Q7388 685 7393 695Q7398 706 7400 721Q7403 737 7403 760Q7403 785 7397 815Q7392 846 7379 873Q7366 900 7346 918Q7326 936 7298 936Q7262 936 7236 914Q7211 893 7194 859Q7178 825 7168 781Q7159 738 7154 694Q7149 650 7148 609Q7147 569 7147 541ZM8482 692Q8451 692 8430 701Q8409 711 8396 727Q8383 743 8377 762Q8371 782 8371 803Q8371 830 8374 855Q8378 880 8375 900Q8373 920 8360 932Q8347 944 8314 944Q8279 944 8240 924Q8201 904 8169 861Q8137 818 8116 750Q8095 683 8095 588Q8095 483 8114 396Q8134 310 8173 249Q8212 188 8270 154Q8328 121 8406 121Q8441 121 8472 129Q8504 137 8532 151Q8560 165 8585 183Q8611 202 8635 223L8660 199Q8637 168 8601 131Q8565 94 8514 61Q8463 29 8395 7Q8327 -14 8240 -14Q8153 -14 8070 19Q7988 53 7924 117Q7860 181 7821 272Q7783 364 7783 481Q7783 572 7806 648Q7829 725 7868 787Q7908 849 7960 896Q8013 943 8071 974Q8129 1006 8189 1022Q8250 1038 8306 1038Q8380 1038 8435 1021Q8490 1004 8526 976Q8563 948 8581 911Q8599 875 8599 836Q8599 807 8591 780Q8584 754 8569 734Q8555 715 8533 703Q8511 692 8482 692ZM9104 1391L9104 848Q9141 901 9188 943Q9207 961 9230 978Q9254 995 9280 1008Q9307 1022 9336 1030Q9366 1038 9397 1038Q9464 1038 9517 1012Q9570 986 9606 925Q9642 864 9661 763Q9680 663 9680 514Q9680 369 9654 262Q9628 155 9586 80Q9544 5 9491 -43Q9438 -90 9384 -117Q9330 -144 9280 -155Q9230 -165 9194 -166L9184 -125Q9229 -114 9264 -84Q9299 -54 9323 14Q9347 83 9359 199Q9372 315 9372 498Q9372 624 9360 699Q9349 775 9330 814Q9312 854 9288 866Q9265 879 9241 879Q9212 879 9190 863Q9168 848 9151 828Q9135 808 9123 788Q9112 768 9104 758L9104 90Q9104 77 9100 58Q9096 40 9080 23Q9065 7 9034 -5Q9004 -16 8951 -16Q8898 -16 8867 -4Q8836 9 8820 26Q8805 43 8801 61Q8797 79 8797 90L8797 1380Q8797 1409 8783 1430Q8770 1452 8738 1452Q8721 1452 8708 1446Q8696 1441 8682 1430L8662 1454Q8685 1473 8713 1491Q8741 1510 8774 1524Q8808 1538 8846 1547Q8884 1556 8926 1556Q8991 1556 9027 1538Q9063 1521 9080 1495Q9097 1470 9100 1441Q9104 1413 9104 1391ZM11173 -16Q11122 -16 11089 -7Q11056 3 11035 19Q11015 35 11005 54Q10995 74 10991 94Q10928 48 10846 16Q10764 -16 10661 -16Q10569 -16 10490 10Q10412 36 10353 90Q10295 145 10262 230Q10229 316 10229 436Q10229 524 10232 594Q10235 664 10239 725Q10244 787 10249 844Q10255 901 10259 963Q10264 1025 10267 1096Q10270 1167 10270 1257Q10270 1285 10264 1310Q10259 1336 10246 1355Q10234 1375 10212 1387Q10190 1399 10157 1399Q10125 1399 10077 1383Q10029 1368 9984 1338Q9940 1309 9908 1265Q9877 1222 9877 1167Q9877 1135 9885 1116Q9894 1097 9905 1087Q9916 1078 9927 1075Q9939 1073 9944 1073Q9969 1073 9985 1081Q10001 1090 10014 1099Q10027 1109 10038 1117Q10050 1126 10065 1126Q10077 1126 10090 1120Q10104 1115 10115 1103Q10127 1091 10135 1071Q10143 1052 10143 1024Q10143 984 10127 955Q10112 926 10087 906Q10063 887 10031 877Q10000 868 9969 868Q9921 868 9882 884Q9844 901 9817 930Q9790 959 9776 998Q9762 1037 9762 1081Q9762 1150 9785 1207Q9808 1265 9848 1311Q9888 1357 9940 1391Q9993 1426 10053 1449Q10113 1472 10176 1483Q10239 1495 10299 1495Q10368 1495 10416 1480Q10465 1466 10498 1443Q10532 1420 10551 1392Q10571 1364 10581 1337Q10592 1311 10595 1289Q10598 1268 10598 1257Q10598 1176 10595 1108Q10592 1041 10587 979Q10583 917 10577 857Q10572 798 10567 733Q10563 669 10560 596Q10557 524 10557 436Q10557 327 10578 260Q10600 194 10632 158Q10664 122 10700 110Q10737 98 10766 98Q10821 98 10877 116Q10934 134 10987 168L10987 1327Q10987 1356 10974 1373Q10962 1391 10936 1391Q10908 1391 10884 1381Q10860 1371 10841 1362L10825 1399Q10850 1412 10886 1428Q10922 1445 10963 1460Q11004 1475 11047 1485Q11090 1495 11128 1495Q11196 1495 11233 1477Q11271 1460 11289 1434Q11307 1409 11310 1380Q11314 1351 11314 1329L11314 152Q11314 123 11327 105Q11340 88 11366 88Q11393 88 11417 97Q11441 107 11460 117L11476 80Q11451 67 11415 50Q11379 34 11338 19Q11297 4 11254 -6Q11211 -16 11173 -16ZM12314 1356L12314 131Q12314 54 12273 19Q12233 -16 12150 -16Q12066 -16 12026 19Q11986 54 11986 131L11986 1335Q11986 1357 11981 1370Q11976 1383 11967 1390Q11958 1398 11945 1400Q11933 1403 11918 1403Q11896 1403 11863 1396Q11831 1389 11795 1375Q11759 1361 11722 1340Q11686 1320 11657 1294Q11629 1268 11611 1236Q11593 1204 11593 1167Q11593 1135 11601 1116Q11610 1097 11621 1087Q11632 1078 11643 1075Q11655 1073 11660 1073Q11685 1073 11701 1081Q11717 1090 11730 1099Q11743 1109 11754 1117Q11766 1126 11781 1126Q11793 1126 11806 1120Q11820 1115 11831 1103Q11843 1091 11851 1071Q11859 1052 11859 1024Q11859 984 11843 955Q11828 926 11803 906Q11779 887 11747 877Q11716 868 11685 868Q11637 868 11598 884Q11560 901 11533 930Q11506 959 11492 998Q11478 1037 11478 1081Q11478 1150 11503 1207Q11528 1265 11571 1311Q11615 1357 11673 1391Q11732 1426 11800 1449Q11868 1472 11942 1483Q12016 1495 12090 1495Q12172 1495 12217 1479Q12263 1464 12284 1442Q12306 1420 12310 1396Q12314 1372 12314 1356Z" fill="#ffffff" style=""></path></g></g></g></svg>